<svg width="80" height="220" viewBox="0 0 80 220" xmlns="http://www.w3.org/2000/svg">
	<rect width="100%" height="100%" fill="none"/>
	<!-- seed -->
	<rect x="12" y="202" width="6" height="6" fill="#6d4c41" />
	<rect x="18" y="202" width="6" height="6" fill="#8d6e63" />
	<!-- stem (stack of 6x6 pixels) -->
	<g fill="#2e7d32">
		<rect x="38" y="194" width="6" height="6"/>
		<rect x="38" y="188" width="6" height="6"/>
		<rect x="38" y="182" width="6" height="6"/>
		<rect x="38" y="176" width="6" height="6"/>
		<rect x="38" y="170" width="6" height="6"/>
		<rect x="38" y="164" width="6" height="6"/>
		<rect x="38" y="158" width="6" height="6"/>
		<rect x="38" y="152" width="6" height="6"/>
		<rect x="38" y="146" width="6" height="6"/>
		<rect x="38" y="140" width="6" height="6"/>
	</g>
	<!-- leaves -->
	<rect x="32" y="176" width="6" height="6" fill="#388e3c"/>
	<rect x="44" y="168" width="6" height="6" fill="#388e3c"/>
	<!-- flower: simple daisy (center + petals) -->
	<!-- center -->
	<rect x="38" y="114" width="6" height="6" fill="#ffeb3b"/>
	<!-- petals -->
	<g fill="#d81b60">
		<rect x="32" y="108" width="6" height="6"/>
		<rect x="38" y="108" width="6" height="6"/>
		<rect x="44" y="108" width="6" height="6"/>
		<rect x="32" y="114" width="6" height="6"/>
		<rect x="44" y="114" width="6" height="6"/>
		<rect x="32" y="120" width="6" height="6"/>
		<rect x="38" y="120" width="6" height="6"/>
		<rect x="44" y="120" width="6" height="6"/>
	</g>
	<!-- top flower petals -->
	<g fill="#d81b60">
		<rect x="38" y="102" width="6" height="6"/>
		<rect x="32" y="96" width="6" height="6"/>
		<rect x="44" y="96" width="6" height="6"/>
	</g>
	<!-- bottom flower petals -->
	<g fill="#d81b60">
		<rect x="38" y="126" width="6" height="6"/>
		<rect x="32" y="132" width="6" height="6"/>
		<rect x="44" y="132" width="6" height="6"/>
	</g>
</svg>